<svg xmlns="http://www.w3.org/2000/svg" aria-hidden="true" style="position:absolute;width:0;height:0;overflow:hidden">
  <defs>
    <symbol id="clock" viewBox="0 0 32 32">
      <path stroke-linecap="round" stroke-linejoin="round" stroke-width="2.5" d="m22.188 21.333-6.563-3.915V8.981"/>
      <path stroke-linecap="round" stroke-linejoin="round" stroke-width="2.5" d="M24.485 7.515c4.686 4.686 4.686 12.284 0 16.97s-12.284 4.686-16.971 0c-4.686-4.686-4.686-12.284 0-16.97s12.284-4.686 16.971 0"/>
    </symbol>
    <symbol id="arrow-down" viewBox="0 0 32 32">
      <path fill="none" stroke="#262626" stroke-linecap="round" stroke-linejoin="round" stroke-width="2.5" d="m8 13.333 8 6 8-6"/>
    </symbol>
    <symbol id="add" viewBox="0 0 32 32">
      <path stroke-linecap="round" stroke-linejoin="round" stroke-width="2.5" d="M8 16h8m8 0h-8m0 0V8m0 8v8"/>
    </symbol>
    <symbol id="remove" viewBox="0 0 32 32">
      <path stroke-linecap="round" stroke-linejoin="round" stroke-width="2.5" d="M10.343 10.343 16 16m5.657 5.657L16 16m0 0 5.657-5.657M16 16l-5.657 5.657"/>
    </symbol>
    <symbol id="calendar" viewBox="0 0 32 32">
      <path stroke-linecap="round" stroke-linejoin="round" stroke-width="2.5" d="M21.333 2.667V8M10.667 2.667V8M4 12h24M25.333 5.333H6.666A2.666 2.666 0 0 0 3.999 8v17.333A2.666 2.666 0 0 0 6.666 28h18.667A2.666 2.666 0 0 0 28 25.333V8a2.666 2.666 0 0 0-2.667-2.667z"/>
      <path stroke-linecap="round" stroke-linejoin="round" stroke-width="2.5" d="M16.017 16.972a.333.333 0 1 0 .334.333.333.333 0 0 0-.335-.333M22.684 16.972a.333.333 0 1 0 .334.333.333.333 0 0 0-.335-.333M9.351 22.305a.333.333 0 1 0 .334.333.333.333 0 0 0-.335-.333M16.017 22.305a.333.333 0 1 0 .334.333.333.333 0 0 0-.335-.333"/>
    </symbol>
    <symbol id="home" viewBox="0 0 33 32">
      <path stroke-linecap="round" stroke-linejoin="round" stroke-width="2.5" d="M13.333 27.333v-6a3.333 3.333 0 1 1 6.666 0v6h7.333V15.885c0-.707-.281-1.385-.781-1.885l-8.943-8.943a1.332 1.332 0 0 0-1.885 0L6.78 14c-.5.5-.781 1.179-.781 1.885v11.448h7.333z"/>
    </symbol>
    <symbol id="edit" viewBox="0 0 32 32">
      <path stroke-linecap="round" stroke-linejoin="round" stroke-width="2.5" d="m23.387 13.493-4.88-4.88M8.335 28H4v-4.335c0-.353.14-.693.391-.943L22.17 4.942a1.332 1.332 0 0 1 1.885 0l3.001 3.001a1.332 1.332 0 0 1 0 1.885L9.277 27.608a1.328 1.328 0 0 1-.943.391z"/>
    </symbol>
    <symbol id="delete" viewBox="0 0 33 32">
      <path stroke-linecap="round" stroke-linejoin="round" stroke-width="2.5" d="M24.667 8.707H26M12.667 13.96v8.08M16.667 12.413V23.44M20.667 13.96v8.08M21.727 27.296h-10.12a2.94 2.94 0 0 1-2.94-2.94V8.704h16v15.652a2.94 2.94 0 0 1-2.94 2.94zM22 8.704l-.984-3.073a1.335 1.335 0 0 0-1.269-.927h-6.16c-.58 0-1.093.375-1.269.927l-.984 3.073M7.333 8.707h1.333"/>
    </symbol>
    <symbol id="car" viewBox="0 0 32 32">
      <path stroke-linecap="round" stroke-linejoin="round" stroke-width="2.5" d="M28.005 24.67v2.001c0 .736-.597 1.334-1.334 1.334h-2.668a1.335 1.335 0 0 1-1.334-1.334V24.67M9.331 24.67v2.001c0 .736-.598 1.334-1.334 1.334H5.329a1.335 1.335 0 0 1-1.334-1.334V24.67M3.995 24.67v-6.345c0-1.062.421-2.079 1.172-2.829l1.495-1.497h18.674l1.495 1.495a4.002 4.002 0 0 1 1.172 2.83v6.345H3.993zM28.005 19.335l-4.002.333M7.997 19.668l-4.002-.333"/>
      <path stroke-linecap="round" stroke-linejoin="round" stroke-width="2.5" d="m10.664 24.67 1.334-4.002h8.003l1.334 4.002M28.005 12.665l-2.668.667M6.663 13.332l-2.668-.667M6.663 13.999v-.675L7.778 9.14a3.333 3.333 0 0 1 3.221-2.477h10.116a3.336 3.336 0 0 1 3.244 2.561l.978 4.1v.675"/>
    </symbol>
    <symbol id="truck" viewBox="0 0 32 32">
      <path stroke-linecap="round" stroke-linejoin="round" stroke-width="2.5" d="M8.664 7.997h14.673a2.667 2.667 0 0 1 2.668 2.668v1.334a2.667 2.667 0 0 1-2.668 2.668H8.664a2.667 2.667 0 0 1-2.668-2.668v-1.334a2.667 2.667 0 0 1 2.668-2.668z"/>
      <path stroke-linecap="round" stroke-linejoin="round" stroke-width="2.5" d="M5.996 22.669a2.667 2.667 0 0 0 2.668 2.668h14.673a2.667 2.667 0 0 0 2.668-2.668V5.328a2.667 2.667 0 0 0-2.668-2.668H8.664a2.667 2.667 0 0 0-2.668 2.668v17.341zM22.515 20.002h-1.179M10.664 20.002H9.061M18.001 21.772h-4.002M18.001 18.771h-4.002"/>
      <path stroke-linecap="round" stroke-linejoin="round" stroke-width="2.5" d="M25.689 23.915v3.423c0 .736-.598 1.334-1.334 1.334h-2.668a1.334 1.334 0 0 1-1.334-1.334v-2.001M11.646 25.337v2.001c0 .736-.598 1.334-1.334 1.334H7.644a1.334 1.334 0 0 1-1.334-1.334v-3.423M5.996 9.331H3.995c-.736 0-1.334.598-1.334 1.334v4.084M26.004 9.331h2.001c.736 0 1.334.598 1.334 1.334v4.084"/>
    </symbol>
    <symbol id="map" viewBox="0 0 32 32">
      <path stroke-linecap="round" stroke-linejoin="round" stroke-width="2.5" d="M23.103 9.572c0-3.813-3.18-6.905-7.103-6.905S8.897 5.759 8.897 9.572c0 4.031 4.301 8.36 6.209 10.083a1.33 1.33 0 0 0 1.787 0c1.908-1.723 6.209-6.052 6.209-10.083z"/>
      <path stroke-linecap="round" stroke-linejoin="round" stroke-width="2.5" d="M17.672 8.107c.923.911.923 2.389 0 3.3s-2.42.911-3.343 0-.923-2.389 0-3.3 2.42-.911 3.343 0M10.075 13.569 4 16v10.667L10.667 24 16 28l5.333-4L28 26.667V16l-6.075-2.431"/>
    </symbol>
    <symbol id="delivery" viewBox="0 0 32 32">
      <path stroke-linecap="round" stroke-linejoin="round" stroke-width="2.5" d="M6.667 21.333h2.667M17.333 25.333h-12a2.666 2.666 0 0 1-2.667-2.667V10.091c0-.36.073-.717.215-1.048l1.464-3.425a2.668 2.668 0 0 1 2.452-1.619h13.072c1.068 0 2.032.637 2.452 1.619l1.464 3.425c.141.332.215.688.215 1.048v4.708M13.333 4v5.92M23.987 9.92H2.667"/>
      <path stroke-linecap="round" stroke-linejoin="round" stroke-width="2.5" d="M27.381 16.619a6.667 6.667 0 1 1-9.428 9.428 6.667 6.667 0 0 1 9.428-9.428"/>
      <path stroke-linecap="round" stroke-linejoin="round" stroke-width="2.5" d="m25.629 19.852-3.704 3.704-2.221-2.223"/>
    </symbol>
    <symbol id="vehicle" viewBox="0 0 32 32">
      <path stroke-linejoin="round" stroke-linecap="round" stroke-miterlimit="4" stroke-width="2.5" d="M24.939 24.394c0.825 0.825 0.825 2.163 0 2.987-0.825 0.825-2.163 0.825-2.987 0-0.825-0.825-0.825-2.163 0-2.987 0.825-0.825 2.163-0.825 2.987 0"/>
      <path stroke-linejoin="round" stroke-linecap="round" stroke-miterlimit="4" stroke-width="2.5" d="M10.272 24.395c0.825 0.825 0.825 2.163 0 2.987-0.825 0.825-2.163 0.825-2.987 0s-0.825-2.163 0-2.987c0.825-0.824 2.161-0.825 2.987 0"/>
      <path stroke-linejoin="round" stroke-linecap="round" stroke-miterlimit="4" stroke-width="2.5" d="M20 6.667c0-0.736-0.597-1.333-1.333-1.333h-16v14.667h17.333v-13.333z"/>
      <path stroke-linejoin="round" stroke-linecap="round" stroke-miterlimit="4" stroke-width="2.5" d="M6.667 25.888h-2.667c-0.736 0-1.333-0.597-1.333-1.333v-7.221"/>
      <path stroke-linejoin="round" stroke-linecap="round" stroke-miterlimit="4" stroke-width="2.5" d="M20 9.333h5.764c0.545 0 1.036 0.332 1.237 0.839l2.141 5.352c0.125 0.315 0.191 0.651 0.191 0.989v7.931c0 0.736-0.597 1.333-1.333 1.333h-2.441"/>
      <path stroke-linejoin="round" stroke-linecap="round" stroke-miterlimit="4" stroke-width="2.5" d="M21.333 25.893h-10.44"/>
      <path stroke-linejoin="round" stroke-linecap="round" stroke-miterlimit="4" stroke-width="2.5" d="M29.333 18.667h-5.333v-5.333h4.267"/>
    </symbol>
    <symbol id="search" viewBox="0 0 32 32">
      <path fill="none" stroke="#262626" stroke-linecap="round" stroke-linejoin="round" stroke-width="2.5" d="M24.335 24.335 20 20M19.381 9.953a6.667 6.667 0 1 1-9.43 9.428 6.667 6.667 0 0 1 9.43-9.428"/>
    </symbol>
    <symbol id="warehouse" viewBox="0 0 33 32">
      <path stroke-linecap="round" stroke-linejoin="round" stroke-width="2.5" d="M10 20h13.333M10 24h13.333M10 28h13.333M23.333 28V16H10v12M14 12h5.333"/>
      <path stroke-linecap="round" stroke-linejoin="round" stroke-width="2.5" d="M28.667 10.667 16.667 4l-12 6.667V28h24V10.667z"/>
    </symbol>
    <symbol id="cross-dock" viewBox="0 0 32 32">
      <path stroke-linecap="round" stroke-linejoin="round" stroke-width="2.5" d="m16 4 12 6.667V28h-4.667V14.4H8.666V28H3.999V10.667l12-6.667z"/>
      <path stroke-linecap="round" stroke-linejoin="round" stroke-width="2.5" d="M19.777 28h-2.223a.887.887 0 0 1-.888-.889v-2.223c0-.491.397-.888.889-.888h2.223c.491 0 .888.397.888.889v2.223a.887.887 0 0 1-.889.888zM14.444 28h-2.221a.888.888 0 0 1-.889-.889v-2.223c0-.491.397-.888.889-.888h2.223c.491 0 .888.397.888.889v2.223a.887.887 0 0 1-.889.888zM17.111 23.289h-2.223a.888.888 0 0 1-.889-.889v-2.223c0-.491.397-.889.889-.889h2.223c.491 0 .889.397.889.889V22.4a.888.888 0 0 1-.889.889z"/>
    </symbol>
    <symbol id="location" viewBox="0 0 32 32">
      <path fill="none" stroke-linecap="round" stroke-linejoin="round" stroke-width="2.5" d="M16 16.889a4.444 4.444 0 1 1 0-8.888 4.444 4.444 0 0 1 0 8.888z"/>
      <path fill="none" stroke-linecap="round" stroke-linejoin="round" stroke-width="2.5" d="M16 29.333s-9.778-8.519-9.778-16.296C6.222 7.31 10.6 2.667 16 2.667s9.778 4.643 9.778 10.37c0 7.778-9.778 16.296-9.778 16.296z"/>
    </symbol>
    <symbol id="route" viewBox="0 0 32 32">
      <path stroke-linecap="round" stroke-linejoin="round" stroke-width="2.5" d="m11 8 9.009-.017a4 4 0 0 1 4.007 4.015v.019a4 4 0 0 1-3.999 3.984h-6.685a4 4 0 1 0 .002 7.998l13.332-.004M26.667 23.993l-2.663 2.663M24.004 21.329l2.663 2.664"/>
      <path stroke-linecap="round" stroke-linejoin="round" stroke-width="2.5" d="M10.121 5.879a3 3 0 1 1-4.241 4.243 3 3 0 0 1 4.241-4.243"/>
    </symbol>
    <symbol id="arrow-link" viewBox="0 0 24 24">
        <path stroke-width="2" d="m16.95 7.05-9.9 9.9M10 7h7v7"/>
    </symbol>
    <symbol id="coordinates" viewBox="0 0 24 24">
      <path stroke="#262626" fill="none" stroke-linecap="round" stroke-linejoin="round" stroke-width="2" d="M7.5 3H5.25A2.25 2.25 0 0 0 3 5.25V7.5M3 16.5v2.25A2.25 2.25 0 0 0 5.25 21H7.5M16.5 21h2.25A2.25 2.25 0 0 0 21 18.75V16.5M21 7.5V5.25A2.25 2.25 0 0 0 18.75 3H16.5"/>
      <path stroke="#262626" fill="none" stroke-linecap="round" stroke-linejoin="round" stroke-width="2" d="M12 18s-4.667-3.833-4.667-7.333a4.666 4.666 0 1 1 9.334 0C16.667 14.167 12 18 12 18Z" clip-rule="evenodd"/>
      <path stroke="#262626" fill="none" stroke-linecap="round" stroke-linejoin="round" stroke-width="2" d="M11.999 10.722a.278.278 0 1 0 .002.556.278.278 0 0 0-.002-.556"/>
    </symbol>
  </defs>
</svg>
